<svg xmlns="http://www.w3.org/2000/svg"  viewBox="0 0 1440 560" class="nuvens">
<style>
@keyframes nuvem1 {
    
0% {

transform: translateY(-10px);

}

100% {

transform: translateY(-90px);

}

}  

@keyframes nuvem2 {
    
0% {
    
transform: translateY(5px);
    
}
    
100% {
    
transform: translateY(-45px);
    
}
    
} 

@keyframes nuvem3 {
    
0% {
        
transform: translateY(25px);
        
}
        
100% {
        
transform: translateY(0px);
        
}
        
} 

@keyframes nuvem4 {
    
0% {
            
transform: translateY(20px);
            
}
            
100% {
            
transform: translateY(0px);
            
}
            
}

.nuvem1 {

animation: nuvem1 7s infinite alternate;
  
}

.nuvem2 {

animation: nuvem2 8s infinite alternate;

}

.nuvem3 {

animation: nuvem3 12s infinite alternate;

}

.nuvem4 {

animation: nuvem4 3s infinite alternate;

}

</style>
<path d="M1488 560L0 560 L0 282.43Q61.37 223.8, 120 285.16Q164.69 257.86, 192 302.55Q258.24 248.79, 312 315.03Q357.36 288.38, 384 333.74Q422.15 251.89, 504 290.04Q574.63 240.68, 624 311.31Q687.6 302.9, 696 366.5Q713.04 263.54, 816 280.59Q886.91 231.5, 936 302.41Q1004.08 250.49, 1056 318.56Q1115.43 305.99, 1128 365.42Q1153.57 270.99, 1248 296.56Q1323.33 251.88, 1368 327.21Q1421.74 260.95, 1488 314.7z" fill="#182f5d" class="nuvem1">    
</path>    
<path d="M1464 560L0 560 L0 418.19Q46.55 344.74, 120 391.28Q144.39 343.67, 192 368.06Q270.41 326.47, 312 404.88Q340.81 361.69, 384 390.5Q465.79 352.29, 504 434.08Q526.41 336.49, 624 358.89Q674.85 337.74, 696 388.59Q759.77 380.36, 768 444.13Q785.99 342.12, 888 360.1Q957.59 309.69, 1008 379.28Q1077.1 328.38, 1128 397.48Q1175.61 373.09, 1200 420.7Q1273.32 374.01, 1320 447.33Q1335.23 390.56, 1392 405.79Q1436.85 378.63, 1464 423.48z" fill="#25467d" class="nuvem2">
</path>
<path d="M1488 560L0 560 L0 420.09Q74.05 374.14, 120 448.19Q190.49 398.68, 240 469.17Q289.61 446.78, 312 496.4Q348.85 413.25, 432 450.1Q459.41 405.51, 504 432.92Q589.26 398.18, 624 483.44Q668.6 408.04, 744 452.65Q829.31 417.95, 864 503.26Q892.29 459.55, 936 487.84Q955.47 435.31, 1008 454.78Q1060.11 386.89, 1128 439Q1157.08 396.07, 1200 425.15Q1263.04 416.19, 1272 479.23Q1325.83 461.06, 1344 514.88Q1348.44 447.32, 1416 451.76Q1442.75 406.51, 1488 433.26z" fill="#356cb1" class="nuvem3">
</path>
<path d="M1488 560L0 560 L0 523.35Q32.94 484.29, 72 517.23Q129.75 502.98, 144 560.72Q187.63 484.35, 264 527.97Q323.71 515.68, 336 575.4Q341.87 509.27, 408 515.14Q460.93 448.07, 528 501Q626.31 479.31, 648 577.61Q665.86 523.47, 720 541.33Q771.74 473.07, 840 524.8Q892.48 505.28, 912 557.76Q942.32 468.08, 1032 498.39Q1079.56 473.95, 1104 521.51Q1194.33 491.84, 1224 582.17Q1276.2 514.37, 1344 566.56Q1344.89 495.45, 1416 496.34Q1466.97 475.31, 1488 526.28z" fill="#fff" class="nuvem4">
</path>
</svg>